<svg xmlns="http://www.w3.org/2000/svg" xmlns:xlink="http://www.w3.org/1999/xlink" width="500" zoomAndPan="magnify" viewBox="0 0 375 374.999991" height="500" preserveAspectRatio="xMidYMid meet" version="1.0"><defs><clipPath id="dbed084705"><path d="M 102 70.136719 L 287 70.136719 L 287 129 L 102 129 Z M 102 70.136719 " clip-rule="nonzero"/></clipPath><clipPath id="504b14b2d2"><path d="M 102 246 L 287 246 L 287 304.886719 L 102 304.886719 Z M 102 246 " clip-rule="nonzero"/></clipPath></defs><path fill="#fa776c" d="M 71.804688 124.25 C 71.804688 109.046875 88.386719 99.652344 101.417969 107.476562 L 150.589844 136.992188 C 162.367188 144.0625 169.578125 156.796875 169.578125 170.539062 L 169.578125 204.484375 C 169.578125 218.230469 162.367188 230.964844 150.589844 238.035156 L 101.417969 267.550781 C 88.386719 275.371094 71.804688 265.980469 71.804688 250.773438 Z M 71.804688 124.25 " fill-opacity="1" fill-rule="nonzero"/><g clip-path="url(#dbed084705)"><path fill="#624cf5" d="M 274.886719 70.136719 C 285.242188 70.136719 290.519531 82.582031 283.324219 90.035156 L 257.367188 116.894531 C 250 124.519531 239.851562 128.824219 229.25 128.824219 L 180.410156 128.824219 C 173.320312 128.824219 166.367188 126.898438 160.289062 123.25 L 108.125 91.941406 C 97.921875 85.816406 102.261719 70.136719 114.164062 70.136719 Z M 274.886719 70.136719 " fill-opacity="1" fill-rule="nonzero"/></g><g clip-path="url(#504b14b2d2)"><path fill="#624cf5" d="M 274.886719 304.886719 C 285.242188 304.886719 290.519531 292.441406 283.324219 284.992188 L 257.367188 258.132812 C 250 250.507812 239.851562 246.199219 229.25 246.199219 L 180.410156 246.199219 C 173.320312 246.199219 166.367188 248.128906 160.289062 251.777344 L 108.125 283.085938 C 97.921875 289.210938 102.261719 304.886719 114.164062 304.886719 Z M 274.886719 304.886719 " fill-opacity="1" fill-rule="nonzero"/></g><path fill="#fa776c" d="M 210.640625 158.167969 C 211.601562 158.167969 212.558594 158.214844 213.515625 158.3125 C 214.472656 158.40625 215.421875 158.546875 216.363281 158.734375 C 217.304688 158.921875 218.234375 159.152344 219.15625 159.433594 C 220.074219 159.710938 220.976562 160.035156 221.867188 160.402344 C 222.753906 160.769531 223.621094 161.179688 224.46875 161.632812 C 225.316406 162.085938 226.136719 162.582031 226.9375 163.113281 C 227.734375 163.648438 228.503906 164.21875 229.25 164.832031 C 229.992188 165.441406 230.703125 166.085938 231.382812 166.765625 C 232.058594 167.445312 232.703125 168.15625 233.3125 168.898438 C 233.921875 169.640625 234.496094 170.410156 235.027344 171.210938 C 235.5625 172.007812 236.054688 172.832031 236.507812 173.679688 C 236.960938 174.527344 237.371094 175.394531 237.738281 176.285156 C 238.105469 177.171875 238.429688 178.074219 238.710938 178.996094 C 238.988281 179.914062 239.222656 180.847656 239.410156 181.789062 C 239.597656 182.730469 239.738281 183.679688 239.832031 184.636719 C 239.925781 185.59375 239.972656 186.550781 239.972656 187.511719 C 239.972656 188.472656 239.925781 189.433594 239.832031 190.390625 C 239.738281 191.347656 239.597656 192.296875 239.410156 193.238281 C 239.222656 194.179688 238.988281 195.113281 238.710938 196.03125 C 238.429688 196.949219 238.105469 197.855469 237.738281 198.742188 C 237.371094 199.628906 236.960938 200.5 236.507812 201.34375 C 236.054688 202.191406 235.5625 203.015625 235.027344 203.816406 C 234.496094 204.613281 233.921875 205.386719 233.3125 206.128906 C 232.703125 206.871094 232.058594 207.582031 231.382812 208.261719 C 230.703125 208.941406 229.992188 209.585938 229.25 210.195312 C 228.503906 210.804688 227.734375 211.378906 226.9375 211.910156 C 226.136719 212.445312 225.316406 212.9375 224.46875 213.390625 C 223.621094 213.84375 222.753906 214.253906 221.867188 214.625 C 220.976562 214.992188 220.074219 215.3125 219.15625 215.59375 C 218.234375 215.871094 217.304688 216.105469 216.363281 216.292969 C 215.421875 216.480469 214.472656 216.621094 213.515625 216.714844 C 212.558594 216.808594 211.601562 216.855469 210.640625 216.855469 C 209.679688 216.855469 208.722656 216.808594 207.765625 216.714844 C 206.808594 216.621094 205.859375 216.480469 204.917969 216.292969 C 203.976562 216.105469 203.046875 215.871094 202.125 215.59375 C 201.207031 215.3125 200.304688 214.992188 199.414062 214.625 C 198.527344 214.253906 197.660156 213.84375 196.8125 213.390625 C 195.964844 212.9375 195.144531 212.445312 194.34375 211.910156 C 193.546875 211.378906 192.777344 210.804688 192.03125 210.195312 C 191.289062 209.585938 190.578125 208.941406 189.898438 208.261719 C 189.222656 207.582031 188.578125 206.871094 187.96875 206.128906 C 187.359375 205.386719 186.785156 204.613281 186.253906 203.816406 C 185.71875 203.015625 185.226562 202.191406 184.773438 201.34375 C 184.320312 200.5 183.910156 199.628906 183.542969 198.742188 C 183.175781 197.855469 182.851562 196.949219 182.570312 196.03125 C 182.292969 195.113281 182.058594 194.179688 181.871094 193.238281 C 181.683594 192.296875 181.542969 191.347656 181.449219 190.390625 C 181.355469 189.433594 181.308594 188.472656 181.308594 187.511719 C 181.308594 186.550781 181.355469 185.59375 181.449219 184.636719 C 181.542969 183.679688 181.683594 182.730469 181.871094 181.789062 C 182.058594 180.847656 182.292969 179.914062 182.570312 178.996094 C 182.851562 178.074219 183.175781 177.171875 183.542969 176.285156 C 183.910156 175.394531 184.320312 174.527344 184.773438 173.679688 C 185.226562 172.832031 185.71875 172.007812 186.253906 171.210938 C 186.785156 170.410156 187.359375 169.640625 187.96875 168.898438 C 188.578125 168.15625 189.222656 167.445312 189.898438 166.765625 C 190.578125 166.085938 191.289062 165.441406 192.03125 164.832031 C 192.777344 164.21875 193.546875 163.648438 194.34375 163.113281 C 195.144531 162.582031 195.964844 162.085938 196.8125 161.632812 C 197.660156 161.179688 198.527344 160.769531 199.414062 160.402344 C 200.304688 160.035156 201.207031 159.710938 202.125 159.433594 C 203.046875 159.152344 203.976562 158.921875 204.917969 158.734375 C 205.859375 158.546875 206.808594 158.40625 207.765625 158.3125 C 208.722656 158.214844 209.679688 158.167969 210.640625 158.167969 Z M 210.640625 158.167969 " fill-opacity="1" fill-rule="nonzero"/></svg>